<?xml version="1.0" standalone="no"?>
<!DOCTYPE svg PUBLIC "-//W3C//DTD SVG 20010904//EN"
 "http://www.w3.org/TR/2001/REC-SVG-20010904/DTD/svg10.dtd">
<svg version="1.0" xmlns="http://www.w3.org/2000/svg"
 width="233.000000pt" height="114.000000pt" viewBox="0 0 233.000000 114.000000"
 preserveAspectRatio="xMidYMid meet">
<metadata>
Created by potrace 1.15, written by Peter Selinger 2001-2017
</metadata>
<g transform="translate(0.000000,114.000000) scale(0.100000,-0.100000)"
fill="#000000" stroke="none">
<path d="M2200 665 l0 -265 30 0 30 0 0 265 0 265 -30 0 -30 0 0 -265z"/>
<path d="M1758 758 c-30 -11 -33 -19 -18 -48 10 -18 13 -18 51 -5 99 35 146 5
164 -105 4 -25 15 -66 25 -92 l18 -48 -182 0 c-171 0 -184 1 -205 21 -15 14
-20 27 -15 42 4 11 6 45 6 74 -1 91 -52 151 -136 160 -51 6 -123 -16 -150 -46
-34 -37 -39 -159 -11 -233 7 -17 -12 -18 -312 -18 -273 0 -322 2 -341 16 -12
8 -45 49 -72 90 -70 103 -114 123 -195 85 -96 -44 -144 -163 -87 -214 10 -9
47 -26 82 -39 56 -20 65 -27 68 -50 3 -22 -3 -32 -30 -48 -28 -17 -50 -20
-156 -20 -108 0 -124 2 -141 19 -39 39 -48 121 -24 219 5 21 2 23 -23 20 -36
-4 -53 -46 -53 -133 -1 -76 26 -137 71 -165 29 -17 50 -20 168 -20 186 1 241
27 257 124 8 51 -15 80 -79 101 -107 35 -122 63 -64 121 50 50 84 47 133 -12
89 -107 110 -128 140 -141 25 -10 119 -13 426 -13 388 0 394 0 438 23 l44 22
45 -22 c42 -22 56 -23 257 -23 l213 0 0 25 c0 14 -8 42 -19 63 -10 20 -26 72
-35 115 -19 95 -38 132 -76 152 -33 17 -139 19 -182 3z m-247 -84 c20 -22 24
-36 24 -91 0 -60 -2 -67 -33 -94 -26 -23 -42 -29 -77 -29 -40 0 -47 3 -56 28
-14 35 -23 134 -16 164 8 30 39 46 93 47 31 1 46 -5 65 -25z"/>
<path d="M700 223 c-34 -87 -64 -164 -67 -171 -4 -10 1 -13 17 -10 17 2 27 16
42 56 l19 52 69 0 69 0 19 -52 c14 -38 26 -54 41 -56 11 -2 21 -2 21 0 0 2
-29 78 -64 168 -85 221 -84 221 -166 13z"/>
<path d="M980 210 c0 -163 1 -170 20 -170 18 0 20 7 20 80 l0 80 90 0 90 0 0
-80 c0 -73 2 -80 20 -80 19 0 20 7 20 170 0 163 -1 170 -20 170 -18 0 -20 -7
-20 -70 l0 -70 -90 0 -90 0 0 70 c0 63 -2 70 -20 70 -19 0 -20 -7 -20 -170z"/>
<path d="M1340 211 c0 -144 2 -171 15 -171 12 0 15 26 17 152 l3 153 56 -150
c73 -197 75 -197 148 -5 l56 145 3 -147 c2 -140 4 -148 22 -148 19 0 20 7 20
170 l0 170 -33 0 -32 0 -48 -127 c-26 -71 -51 -133 -55 -140 -5 -7 -28 43 -59
125 -49 133 -51 137 -82 140 l-31 3 0 -170z"/>
<path d="M1750 369 c0 -6 9 -13 20 -16 19 -5 20 -14 20 -144 0 -132 -1 -139
-20 -139 -11 0 -20 -7 -20 -15 0 -12 13 -15 60 -15 59 0 83 16 40 27 -19 5
-20 14 -20 143 0 130 1 139 20 145 39 12 19 25 -40 25 -37 0 -60 -4 -60 -11z"/>
</g>
</svg>
